<svg xmlns="http://www.w3.org/2000/svg" width="100%" height="100%" fill="currentColor" viewBox="0 0 24 24"><path d="M12 0.5c-6.63 0-12 5.37-12 12 0 5.3 3.438 9.8 8.207 11.387.6.113.82-.262.82-.583 0-.287-.01-1.047-.016-2.056-3.338.726-4.042-1.61-4.042-1.61-.546-1.387-1.333-1.756-1.333-1.756-1.089-.745.083-.73.083-.73 1.205.084 1.84 1.236 1.84 1.236 1.07 1.835 2.809 1.306 3.495.998.108-.776.418-1.306.762-1.607-2.665-.305-5.466-1.333-5.466-5.93 0-1.31.469-2.381 1.236-3.221-.124-.303-.536-1.527.117-3.176 0 0 1.008-.322 3.301 1.23.957-.266 1.984-.399 3.006-.404 1.02.005 2.047.138 3.006.404 2.291-1.552 3.297-1.23 3.297-1.23.655 1.649.243 2.873.119 3.176.77.84 1.234 1.911 1.234 3.221 0 4.609-2.805 5.621-5.476 5.92.43.37.814 1.102.814 2.222 0 1.606-.014 2.9-.014 3.293 0 .324.216.7.825.58C20.565 22.296 24 17.797 24 12.5c0-6.63-5.37-12-12-12z"/></svg>